<svg width="8.884766" height="16.666626" viewBox="0 0 8.88477 16.6666" fill="none" xmlns="http://www.w3.org/2000/svg" xmlns:xlink="http://www.w3.org/1999/xlink">
	<desc>
			Created with Pixso.
	</desc>
	<defs/>
	<path id="Vector" d="M2.63 16.66L2.63 9.33L0 9.33L0 6.33L2.63 6.33L2.63 4.04C2.63 1.43 4.18 0 6.56 0C7.33 0.01 8.11 0.07 8.88 0.2L8.88 2.75L7.57 2.75C7.35 2.72 7.12 2.74 6.91 2.81C6.69 2.88 6.5 3 6.33 3.16C6.17 3.31 6.05 3.5 5.97 3.71C5.89 3.93 5.86 4.15 5.88 4.38L5.88 6.33L8.76 6.33L8.3 9.33L5.88 9.33L5.88 16.66L2.63 16.66Z" fill="#FFFFFF" fill-opacity="1.000000" fill-rule="nonzero"/>
</svg>
