<svg width="4446.855469" height="1964.551758" viewBox="0 0 4446.86 1964.55" fill="none" xmlns="http://www.w3.org/2000/svg" xmlns:xlink="http://www.w3.org/1999/xlink">
	<desc>
			Created with Pixso.
	</desc>
	<defs/>
	<g opacity="0.050000">
		<path id="Vector" d="M21.25 1002.37C131.59 1131.22 347.15 1011.27 518.37 984.61C715.85 954.01 890.15 821.88 1001.6 654.65C1026.84 616.68 1050.53 575.77 1087.09 548.42C1123.65 521.08 1178.47 511.39 1212.75 540.12C1257.87 577.66 1242.29 649.07 1233.75 707.65C1224.91 766.27 1246.82 846.53 1305.75 843.55C1334.14 842.18 1357.03 820.58 1376.95 800.23C1532.32 640.88 1674.88 468.59 1840.99 320.23C2007.16 172.49 2201.71 47.26 2419.13 5.61C2517.97 -13.27 2653.79 13.68 2660.05 113.55C2663.57 168.72 2622.25 216.1 2591.05 262.44C2559.86 308.78 2538.21 375.54 2575.85 415.71C2597.44 438.61 2631.52 444.4 2662.99 445.81C2848.41 454.62 3024.6 367.89 3199.93 302.96C3375.3 238.35 3579.71 196.8 3739.33 289.23C3784.84 315.56 3826.03 354.13 3842.39 404.56C3858.73 454.68 3845.36 517.49 3801.38 548.08C3756.81 579.04 3676.04 601.64 3696.32 651.05C3704.18 670.09 3725.88 679.03 3745.72 685.05C3882.07 726.21 4031.23 723.24 4162.25 778.91C4283.23 830.34 4379.37 932.73 4427.91 1054.62C4439.64 1084.12 4473.36 1179.61 4406.54 1175.32C4382.52 1173.77 4354.92 1152.73 4332.36 1144.51C4305.63 1134.86 4278.2 1127.44 4250.38 1122.25C4140.06 1101.98 4021.48 1118.86 3922.02 1173.79C3824.34 1227.91 3747.8 1312.74 3658.97 1380.53C3526.14 1481.71 3364.73 1543.34 3199.7 1557.87C3028.2 1572.77 2858.3 1540.03 2687.67 1530.32C2678.31 1529.73 2666.89 1530.29 2661.52 1538.29C2657.76 1543.95 2658.55 1551.62 2660.16 1558.28C2681.46 1644.5 2783.13 1689.24 2790.14 1781.28C2793.22 1823.15 2771.29 1866.05 2735.1 1888.09C2676.77 1923.88 2601.26 1901.27 2541.8 1868.93C2460.37 1825.21 2388.83 1765.88 2321.51 1702.4C2263.11 1647.31 2206.79 1588.28 2137.93 1546.05C2106.15 1526.68 2070.73 1510.79 2033.46 1510.29C1995.89 1509.82 1956.17 1527.56 1938.84 1560.99C1897.43 1640.65 1954.22 1710.18 2011.84 1760.7C2052.06 1795.95 2096.36 1828.61 2124.04 1874.47C2135.21 1892.55 2142.5 1918.17 2128.06 1934.55C2121.67 1941.72 2112.4 1945.16 2103.38 1947.95C1947.32 1998.16 1775.27 1926.56 1649.95 1838.96C1586.12 1794.36 1526.7 1744.33 1467.27 1694.31C1437.39 1669.16 1407.82 1643.98 1377.69 1619.47C1360.09 1605.16 1343.56 1589.18 1324.82 1575.91C1310.12 1565.64 1290.81 1549.94 1271.44 1557.52C1263.69 1560.49 1257.55 1567.02 1253.98 1574.53C1235.4 1610.88 1256.68 1651.81 1264.4 1687.62C1269.72 1712.2 1284.22 1744.52 1280.98 1770.29C1273.89 1827.79 1217.48 1870.22 1160.11 1879.23C1102.75 1888.25 1045.51 1871.5 990.91 1853.25C649.08 1738.03 332.78 1551.62 67.14 1309.11C233.66 1342.2 401.14 1375.5 570.87 1385.61C1175.26 1421.63 1759.31 1167.21 2354.75 1044.39C2693.92 974.36 3039.66 947.09 3384.79 928.87C3384.18 928.94 3383.5 928.39 3382.58 928.48C3167.69 889.52 2951.88 916.74 2735.23 935.97C2371.39 968.21 2007.45 1041.42 1649.01 1123.05C1365.73 1187.63 1083.97 1270.04 794.94 1288.05C514.89 1305.75 221.27 1255.06 0 1088.01L21.25 1002.37Z" fill="#FFFFFF" fill-opacity="1.000000" fill-rule="nonzero"/>
	</g>
</svg>
